<?xml version="1.0" encoding="UTF-8"?><svg id="Lag_1" xmlns="http://www.w3.org/2000/svg" width="41" height="41" viewBox="0 0 41 41"><defs><style>.cls-1{fill:#122adf;}.cls-2{fill:#fffdf8;}</style></defs><path class="cls-2" d="M20.5,40C9.75,40,1,31.25,1,20.5S9.75,1,20.5,1s19.5,8.75,19.5,19.5-8.75,19.5-19.5,19.5Z"/><path class="cls-1" d="M20.5,1.5c10.48,0,19,8.52,19,19s-8.52,19-19,19S1.5,30.98,1.5,20.5,10.02,1.5,20.5,1.5M20.5.5C9.45.5.5,9.45.5,20.5s8.95,20,20,20,20-8.95,20-20S31.55.5,20.5.5h0Z"/></svg>