<svg width="40" height="40" viewBox="0 0 40 40" fill="none" xmlns="http://www.w3.org/2000/svg">
<path d="M2.7328 11.7313C3.6144 11.8073 4.3212 11.9745 4.8532 12.2329C5.4004 12.4913 5.8184 12.8029 6.1072 13.1677C6.4112 13.5325 6.6088 13.9277 6.7 14.3533C6.7912 14.7789 6.8368 15.1969 6.8368 15.6073C6.8368 16.0025 6.8064 16.3749 6.7456 16.7245C6.7 17.0589 6.6772 17.3249 6.6772 17.5225C6.6772 17.8265 6.6468 18.1533 6.586 18.5029C6.5252 18.8373 6.4796 19.2097 6.4492 19.6201C6.434 20.0153 6.4644 20.4485 6.5404 20.9197C6.6316 21.3757 6.8292 21.8621 7.1332 22.3789C7.2852 22.7437 7.422 22.9413 7.5436 22.9717C7.6804 23.0021 7.8096 22.9413 7.9312 22.7893C8.068 22.6373 8.1972 22.4245 8.3188 22.1509C8.4556 21.8621 8.6 21.5885 8.752 21.3301C8.904 21.0565 9.0712 20.8209 9.2536 20.6233C9.436 20.4105 9.6488 20.3041 9.892 20.3041C10.2416 20.3497 10.5228 20.5245 10.7356 20.8285C10.9484 21.1325 11.146 21.4517 11.3284 21.7861C11.526 22.1205 11.7388 22.4245 11.9668 22.6981C12.1948 22.9717 12.514 23.1085 12.9244 23.1085C13.3956 23.1085 13.7148 22.9185 13.882 22.5385C14.0644 22.1585 14.1632 21.7025 14.1784 21.1705C14.2088 20.6233 14.1936 20.0609 14.1328 19.4833C14.0872 18.8905 14.0644 18.3889 14.0644 17.9785C14.0644 17.7049 14.0872 17.3857 14.1328 17.0209C14.1784 16.6409 14.2544 16.2533 14.3608 15.8581C14.4824 15.4629 14.6344 15.0829 14.8168 14.7181C15.0144 14.3381 15.2576 14.0265 15.5464 13.7833C15.8504 13.5249 16.2 13.3577 16.5952 13.2817C17.0056 13.1905 17.4768 13.2209 18.0088 13.3729C18.5864 13.4793 19.0348 13.6921 19.354 14.0113C19.6732 14.3305 19.8936 14.7105 20.0152 15.1513C20.1368 15.5769 20.1824 16.0329 20.152 16.5193C20.1216 17.0057 20.0532 17.4693 19.9468 17.9101C19.8404 18.3509 19.7112 18.7461 19.5592 19.0957C19.4224 19.4453 19.3008 19.6961 19.1944 19.8481C19.0728 20.0457 18.9056 20.3117 18.6928 20.6461C18.4952 20.9805 18.2672 21.3529 18.0088 21.7633C17.7656 22.1585 17.5072 22.5765 17.2336 23.0173C16.9752 23.4581 16.7244 23.8837 16.4812 24.2941C16.238 24.7045 16.0252 25.0921 15.8428 25.4569C15.6756 25.8065 15.554 26.0953 15.478 26.3233C15.3108 26.6273 15.1208 26.9009 14.908 27.1441C14.7104 27.4025 14.4976 27.6153 14.2696 27.7825C14.0568 27.9649 13.8364 28.0941 13.6084 28.1701C13.3804 28.2461 13.1524 28.2461 12.9244 28.1701C12.4532 28.1701 12.134 28.0181 11.9668 27.7141C11.7996 27.4253 11.6552 27.0529 11.5336 26.5969C11.0776 25.6545 10.6064 25.1833 10.12 25.1833C9.9984 25.1225 9.8844 25.1453 9.778 25.2517C9.6716 25.3429 9.5652 25.4721 9.4588 25.6393C9.3676 25.7913 9.2764 25.9585 9.1852 26.1409C9.1092 26.3233 9.0484 26.4753 9.0028 26.5969C9.0028 26.6577 8.98 26.7489 8.9344 26.8705C8.904 27.0073 8.8204 27.1441 8.6836 27.2809C8.5468 27.4177 8.3568 27.5469 8.1136 27.6685C7.8704 27.8053 7.5436 27.8965 7.1332 27.9421C6.7228 27.9421 6.358 27.8281 6.0388 27.6001C5.7196 27.3721 5.4384 27.0909 5.1952 26.7565C4.9672 26.4373 4.7772 26.0877 4.6252 25.7077C4.4884 25.3429 4.3896 25.0237 4.3288 24.7501C4.2072 24.5069 4.0476 24.0661 3.85 23.4277C3.6676 22.7741 3.4472 22.0217 3.1888 21.1705C2.9304 20.3041 2.6416 19.3921 2.3224 18.4345C2.0184 17.4617 1.6916 16.5421 1.342 15.6757C1.1292 15.2197 0.9924 14.8093 0.9316 14.4445C0.8556 14.0797 0.8328 13.7605 0.8632 13.4869C0.8936 13.2133 0.9544 12.9853 1.0456 12.8029C1.152 12.6053 1.2736 12.4381 1.4104 12.3013C1.7296 11.9973 2.1704 11.8073 2.7328 11.7313ZM20.6082 11.5717C20.6386 11.1157 20.783 10.6901 21.0414 10.2949C21.2542 9.96051 21.5886 9.64131 22.0446 9.33731C22.5158 9.03331 23.1846 8.84331 24.051 8.76731C24.5678 8.72171 24.9858 8.78251 25.305 8.94971C25.6242 9.11691 25.875 9.35251 26.0574 9.65651C26.2398 9.96051 26.369 10.3025 26.445 10.6825C26.521 11.0625 26.559 11.4501 26.559 11.8453C26.5742 12.2253 26.5666 12.5901 26.5362 12.9397C26.521 13.2741 26.5134 13.5477 26.5134 13.7605C26.4374 14.0797 26.369 14.4217 26.3082 14.7865C26.2626 15.1361 26.2854 15.4705 26.3766 15.7897C26.483 16.0937 26.6882 16.3521 26.9922 16.5649C27.2962 16.7625 27.7598 16.8613 28.383 16.8613C29.0062 16.8613 29.4318 16.6485 29.6598 16.2229C29.903 15.7821 30.0322 15.2577 30.0474 14.6497C30.0778 14.0417 30.0322 13.4261 29.9106 12.8029C29.8042 12.1797 29.713 11.6705 29.637 11.2753C29.637 11.0169 29.6294 10.7053 29.6142 10.3405C29.6142 9.97571 29.6294 9.59571 29.6598 9.20051C29.7054 8.79011 29.7738 8.37971 29.865 7.96931C29.9714 7.55891 30.1234 7.17891 30.321 6.82931C30.5338 6.47971 30.8074 6.17571 31.1418 5.91731C31.4914 5.64371 31.9246 5.45371 32.4414 5.34731C32.8974 5.19531 33.3078 5.19531 33.6726 5.34731C34.0374 5.48411 34.3566 5.71211 34.6302 6.03131C34.919 6.35051 35.1622 6.72291 35.3598 7.14851C35.5726 7.57411 35.7474 7.99971 35.8842 8.42531C36.0362 8.83571 36.1578 9.21571 36.249 9.56531C36.3402 9.91491 36.4086 10.1657 36.4542 10.3177C36.4542 10.6369 36.4922 11.1613 36.5682 11.8909C36.6442 12.6205 36.7506 13.4565 36.8874 14.3989C37.0242 15.3261 37.1838 16.3065 37.3662 17.3401C37.5638 18.3737 37.7766 19.3541 38.0046 20.2813C38.2326 21.2237 38.453 22.1509 38.6658 23.0629C38.8938 23.9597 39.0078 24.7957 39.0078 25.5709C39.0078 26.3461 38.8482 27.0301 38.529 27.6229C38.2098 28.2309 37.617 28.6869 36.7506 28.9909C36.1882 29.1429 35.6866 29.1657 35.2458 29.0593C34.8202 28.9681 34.4402 28.7933 34.1058 28.5349C33.7714 28.2765 33.4826 27.9573 33.2394 27.5773C33.0114 27.1973 32.8062 26.8097 32.6238 26.4145C32.4414 26.0193 32.2894 25.6393 32.1678 25.2745C32.0462 24.8945 31.9322 24.5753 31.8258 24.3169C31.7346 23.9369 31.5978 23.5645 31.4154 23.1997C31.233 22.8197 31.0126 22.4929 30.7542 22.2193C30.4958 21.9457 30.2146 21.7405 29.9106 21.6037C29.6218 21.4669 29.3178 21.4365 28.9986 21.5125C28.6794 21.5125 28.3906 21.6265 28.1322 21.8545C27.8738 22.0825 27.6686 22.4093 27.5166 22.8349C27.3646 23.2605 27.2734 23.7849 27.243 24.4081C27.2278 25.0313 27.2962 25.7305 27.4482 26.5057C27.6002 27.3569 27.6686 28.1777 27.6534 28.9681C27.6534 29.7585 27.5318 30.4653 27.2886 31.0885C27.0606 31.7117 26.7034 32.2209 26.217 32.6161C25.7458 33.0265 25.1226 33.2697 24.3474 33.3457C23.7698 33.3457 23.2758 33.2317 22.8654 33.0037C22.4702 32.7909 22.1282 32.5021 21.8394 32.1373C21.5658 31.7877 21.3454 31.3849 21.1782 30.9289C21.0262 30.4881 20.9046 30.0321 20.8134 29.5609C20.7222 29.1049 20.6614 28.6641 20.631 28.2385C20.6158 27.8129 20.6082 27.4405 20.6082 27.1213C20.6386 26.8933 20.6614 26.4905 20.6766 25.9129C20.707 25.3505 20.7222 24.6817 20.7222 23.9065C20.7374 23.1313 20.745 22.2877 20.745 21.3757C20.745 20.4637 20.7374 19.5517 20.7222 18.6397C20.6918 16.4965 20.6538 14.1405 20.6082 11.5717Z" fill="#122ADF"/>
</svg>
