<svg width="61" height="115" viewBox="0 0 61 115" fill="none" xmlns="http://www.w3.org/2000/svg">
<g clip-path="url(#clip0_148_49)">
<g clip-path="url(#clip1_148_49)">
<path fill-rule="evenodd" clip-rule="evenodd" d="M37.6718 103.195C40.432 99.3546 56.3938 76.9723 57.9239 74.9021C61.9743 69.4716 61.4642 68.5415 55.5237 70.2817C44.3627 73.5219 41.4524 73.672 41.3624 73.702C44.1826 54.0202 45.9528 39.7689 47.1529 9.94619C47.5429 0.31532 47.4529 -0.254726 45.5628 0.615354C43.9426 1.39543 43.5226 3.13559 43.1026 11.4763C42.0225 33.0783 37.9121 71.4518 36.0519 77.2123C35.2118 79.8525 36.892 79.8525 47.573 77.2123C50.1232 76.5822 52.2834 76.1622 52.3734 76.2522C52.7934 76.6722 29.6613 108.445 29.5413 108.445C29.4813 108.445 28.1612 106.405 26.6311 103.915C20.4805 93.9238 14.69 87.0532 7.09929 78.6824C23.3007 80.5426 23.2408 81.8627 23.7208 60.5008C24.0808 44.2393 25.2209 13.8166 25.1309 6.40588C25.0409 -2.56493 19.5204 -0.224712 19.3704 16.6068C19.3104 22.7874 18.29 64.3114 18.32 67.6417C18.38 74.4823 18.35 74.4523 15.7398 74.0623C11.6294 73.4322 7.1893 73.492 4.09902 74.062C-1.00144 75.0221 -0.881423 76.6422 2.44886 80.3926C7.15929 85.7031 7.45932 86.5431 21.8006 107.065C28.3412 116.486 28.821 115.646 37.6718 103.195Z" fill="#122ADF"/>
</g>
</g>
<defs>
<clipPath id="clip0_148_49">
<rect width="61" height="115" fill="white"/>
</clipPath>
<clipPath id="clip1_148_49">
<rect width="95.813" height="95.813" fill="white" transform="translate(99.5001 51.75) rotate(135)"/>
</clipPath>
</defs>
</svg>
